<svg data-v-fde0c5aa="" xmlns="http://www.w3.org/2000/svg" viewBox="0 0 300 300" class="iconLeft"><!----><defs data-v-fde0c5aa=""><!----></defs><rect data-v-fde0c5aa="" fill="transparent" x="0" y="0" width="300px" height="300px" class="logo-background-square"></rect><defs data-v-fde0c5aa=""><!----></defs><g data-v-fde0c5aa="" id="10cfbfaa-4f8a-46a0-9564-a615d2b2b152" fill="#000000" transform="matrix(1.906626885626918,0,0,1.906626885626918,86.09656805329058,132.35416750075146)"><path d="M7.21 14.13L7.21 12.94L2.24 10.12L2.24 10.01L7.21 7.20L7.21 6.03L1.19 9.52L1.19 10.64ZM9.48 14.35L15.51 14.35L15.51 13.40L12.71 13.40L12.71 10.28C12.71 9.16 13.45 8.25 14.87 8.25L16.23 8.25L16.23 7.13L15.22 7.13C13.71 7.13 13.06 7.99 12.78 8.95L12.71 8.95L12.71 7.13L9.48 7.13L9.48 8.08L11.59 8.08L11.59 13.40L9.48 13.40ZM21.13 14.52C22.55 14.52 23.59 13.82 24.02 12.85L23.20 12.29C22.82 13.08 22.09 13.55 21.13 13.55C19.77 13.55 18.91 12.63 18.91 11.35L18.91 11.02L24.26 11.02L24.26 10.49C24.26 8.44 23.00 6.96 21.06 6.96C19.10 6.96 17.74 8.44 17.74 10.75C17.74 13.03 19.05 14.52 21.13 14.52ZM21.06 7.88C22.25 7.88 23.06 8.75 23.06 10.02L23.06 10.18L18.91 10.18L18.91 10.08C18.91 8.82 19.82 7.88 21.06 7.88ZM27.34 14.35L28.52 12.66L29.32 11.51L29.37 11.51L30.20 12.66L31.42 14.35L32.76 14.35L30.04 10.67L32.69 7.13L31.40 7.13L30.32 8.65L29.48 9.86L29.43 9.86L28.56 8.65L27.47 7.13L26.12 7.13L28.74 10.68L26.05 14.35ZM38.05 14.52C39.49 14.52 40.40 13.80 40.82 12.84L40.03 12.29C39.66 13.08 39.03 13.55 38.07 13.55C36.71 13.55 35.98 12.63 35.98 11.35L35.98 10.12C35.98 8.85 36.72 7.92 38.04 7.92C38.93 7.92 39.55 8.36 39.82 9.10L40.71 8.62C40.31 7.64 39.44 6.96 38.04 6.96C35.99 6.96 34.78 8.44 34.78 10.74C34.78 13.02 35.98 14.52 38.05 14.52ZM46.20 14.52C48.23 14.52 49.48 13.03 49.48 10.74C49.48 8.44 48.23 6.96 46.20 6.96C44.17 6.96 42.92 8.44 42.92 10.74C42.92 13.03 44.17 14.52 46.20 14.52ZM46.20 13.55C44.95 13.55 44.11 12.81 44.11 11.26L44.11 10.22C44.11 8.67 44.95 7.92 46.20 7.92C47.45 7.92 48.29 8.67 48.29 10.22L48.29 11.26C48.29 12.81 47.45 13.55 46.20 13.55ZM52.89 14.35L52.89 9.34C52.89 8.39 53.79 7.95 54.68 7.95C55.79 7.95 56.39 8.60 56.39 9.91L56.39 14.35L57.51 14.35L57.51 9.72C57.51 7.97 56.52 6.96 55.01 6.96C53.82 6.96 53.26 7.59 52.95 8.30L52.89 8.30L52.89 7.13L51.77 7.13L51.77 14.35ZM63.08 14.52C64.93 14.52 66.14 13.69 66.14 12.26C66.14 10.70 64.69 10.42 63.66 10.26L62.52 10.09C61.88 10.00 61.25 9.80 61.25 9.04C61.25 8.30 61.88 7.90 63.01 7.90C64.29 7.90 64.93 8.40 65.27 8.81L66.00 8.12C65.31 7.39 64.36 6.96 63.06 6.96C61.38 6.96 60.14 7.67 60.14 9.11C60.14 10.68 61.60 10.96 62.62 11.12L63.76 11.28C64.41 11.38 65.03 11.58 65.03 12.33C65.03 13.19 64.23 13.58 63.11 13.58C61.96 13.58 61.18 13.17 60.49 12.45L59.74 13.10C60.49 13.96 61.57 14.52 63.08 14.52ZM73.11 14.35L74.23 14.35L74.23 7.13L73.11 7.13L73.11 12.14C73.11 13.09 72.21 13.52 71.32 13.52C70.21 13.52 69.61 12.88 69.61 11.56L69.61 7.13L68.49 7.13L68.49 11.76C68.49 13.51 69.48 14.52 70.99 14.52C72.18 14.52 72.74 13.89 73.05 13.17L73.11 13.17ZM76.72 14.35L82.88 14.35L82.88 13.40L80.36 13.40L80.36 3.99L76.72 3.99L76.72 4.94L79.24 4.94L79.24 13.40L76.72 13.40ZM85.19 14.13L91.21 10.64L91.21 9.52L85.19 6.03L85.19 7.22L90.16 10.04L90.16 10.15L85.19 12.96Z"></path></g><defs data-v-fde0c5aa=""><linearGradient data-v-fde0c5aa="" gradientTransform="rotate(25)" id="82bc08b5-00e8-4cd1-85fa-d32e46791801" x1="0%" y1="0%" x2="100%" y2="0%"><stop data-v-fde0c5aa="" offset="0%" stop-color="#0D2175" stop-opacity="1"></stop><stop data-v-fde0c5aa="" offset="100%" stop-color="#1F1EFB" stop-opacity="1"></stop></linearGradient></defs><g data-v-fde0c5aa="" id="05850ba8-7f42-47d3-b681-60ed48bab648" stroke="none" fill="url(#82bc08b5-00e8-4cd1-85fa-d32e46791801)" transform="matrix(0.18486907261949317,0,0,0.18486907261949317,34.02872909543428,126.34600131207239)"><style></style><path d="M84.5 82.1c9 0 16.4-6.7 17.6-15.4h30.4l13 18.8c.5.7 1.2 1 2 1h73.7c1.3 0 2.4-1.1 2.4-2.4 0-1.3-1.1-2.4-2.4-2.4h-72.5l-13-18.8c-.5-.7-1.2-1-2-1H102c-1.2-8.7-8.6-15.4-17.6-15.4-9.8 0-17.8 8-17.8 17.8s8.1 17.8 17.9 17.8zm0-30.7c7.1 0 12.9 5.8 12.9 12.9 0 7.1-5.8 12.9-12.9 12.9-7.1 0-12.9-5.8-12.9-12.9s5.7-12.9 12.9-12.9zM221.2 109.5h-76.7c-1.2-8.7-8.6-15.4-17.6-15.4-9.8 0-17.8 8-17.8 17.8s8 17.8 17.8 17.8c9 0 16.4-6.7 17.6-15.4h76.7c1.3 0 2.4-1.1 2.4-2.4 0-1.3-1.1-2.4-2.4-2.4zm-94.3 15.4c-7.1 0-12.9-5.8-12.9-12.9s5.8-13 12.9-13c7.1 0 12.9 5.8 12.9 12.9 0 7.2-5.8 13-12.9 13z"></path><path d="M221.2 140.3h-66.9c-.8 0-1.6.4-2.1 1.1l-9.4 15h-41.2l-10.2-19c-.4-.8-1.2-1.3-2.1-1.3H67.7c-1.2-8.7-8.6-15.4-17.6-15.4-9.8 0-17.8 8-17.8 17.8s8 17.8 17.8 17.8c9 0 16.4-6.7 17.6-15.4h20.1l10.2 19c.4.8 1.2 1.3 2.1 1.3h44c.8 0 1.6-.4 2.1-1.1l9.4-15h65.5c1.3 0 2.4-1.1 2.4-2.4.1-1.3-1-2.4-2.3-2.4zM50.1 151.6c-7.1 0-12.9-5.8-12.9-12.9s5.8-12.9 12.9-12.9c7.1 0 12.9 5.8 12.9 12.9.1 7.1-5.7 12.9-12.9 12.9zM221.2 168.6h-38.6c-.9 0-1.7.5-2.1 1.2l-11.4 19.4h-58.2c-1.2-8.7-8.6-15.4-17.6-15.4-9.8 0-17.8 8-17.8 17.8s8 17.8 17.8 17.8c9 0 16.4-6.7 17.6-15.4h59.6c.9 0 1.7-.5 2.1-1.2l11.4-19.4h37.2c1.3 0 2.4-1.1 2.4-2.4 0-1.3-1.1-2.4-2.4-2.4zm-127.9 36c-7.1 0-12.9-5.8-12.9-12.9 0-7.1 5.8-12.9 12.9-12.9 7.1 0 12.9 5.8 12.9 12.9.1 7.1-5.7 12.9-12.9 12.9z"></path></g><!----></svg>